PathFileType	4	(X/Y/Z)	./resultDataOpenSim/trcMotMarkerGrf/sub09/qtm-12-04.trc
DataRate	CameraRate	NumFrames	NumMarkers	Units	OrigDataRate	OrigDataStartFrame	OrigNumFrames
250.000000	250.000000	4	24	m	250.000000	181	481
Frame#	Time	L.Toe.Tip			R.Toe.Tip			L.Ankle.Lat			R.Ankle.Lat			L.Ankle.Med			R.Ankle.Med			L.Heel			R.Heel			L.Knee.Lat			R.Knee.Lat			L.Knee.Med			R.Knee.Med			L.Thigh.Upper			R.Thigh.Upper			L.ASIS			R.ASIS			V.Sacral			L.Acromium			R.Acromium			C7			L.Elbow			R.Elbow			L.Wrist.Lat			R.Wrist.Lat
		X1	Y1	Z1	X2	Y2	Z2	X3	Y3	Z3	X4	Y4	Z4	X5	Y5	Z5	X6	Y6	Z6	X7	Y7	Z7	X8	Y8	Z8	X9	Y9	Z9	X10	Y10	Z10	X11	Y11	Z11	X12	Y12	Z12	X13	Y13	Z13	X14	Y14	Z14	X15	Y15	Z15	X16	Y16	Z16	X17	Y17	Z17	X18	Y18	Z18	X19	Y19	Z19	X20	Y20	Z20	X21	Y21	Z21	X22	Y22	Z22	X23	Y23	Z23	X24	Y24	Z24

181	0.72	0.21253349	0.015918203	0.0053392302	-0.52886404	0.066474459	0.071682045	0.065752653	0.045906783	-0.041663315	-0.57584783	0.21300089	0.11040983	0.079998564	0.069214803	0.054286184	-0.52228828	0.2138238	0.026864384	-0.008290502	0.012125573	0.00069103045	-0.61473468	0.25744411	0.050574521	0.10722871	0.45335823	-0.10781772	-0.18360947	0.426169	0.18713442	0.10581315	0.4606719	0.016651002	-0.16712386	0.40061097	0.062209894	-0.090192284	0.82320492	-0.16737756	-0.1557329	0.8239276	0.20185751	-0.030868147	0.91409787	-0.098415995	-0.047945546	0.90804437	0.14179505	-0.20737705	0.9608656	0.0052767899	-0.054037888	1.3581085	-0.16116983	-0.08040494	1.3785126	0.17095915	-0.13531262	1.4165631	0.00079197699	-0.2201229	1.0361784	-0.21628657	-0.20819415	1.0343218	0.26016726	-0.13362402	0.78816661	-0.2531206	-0.0280607	0.82557012	0.27747328
182	0.724	0.2125755	0.015871739	0.0053052756	-0.52163628	0.069977353	0.073607211	0.065891668	0.045785856	-0.041697334	-0.56374593	0.21859389	0.11149023	0.080277388	0.069173952	0.054236832	-0.51004134	0.21825532	0.028102934	-0.0082863992	0.012159742	0.00070583172	-0.60135594	0.26456516	0.051955887	0.11028865	0.45283845	-0.10822209	-0.16979983	0.42577588	0.18747308	0.10833903	0.45998901	0.016168139	-0.15301377	0.40050583	0.062306153	-0.084171883	0.82404486	-0.16776731	-0.14890593	0.82408081	0.20136169	-0.024687823	0.91502424	-0.09888914	-0.041966352	0.90883957	0.1414245	-0.20164553	0.96184763	0.0046664819	-0.046519094	1.358831	-0.16122304	-0.073304799	1.3792134	0.17087146	-0.12815124	1.4175575	0.00060627147	-0.2121597	1.0365683	-0.21671689	-0.20231624	1.0354886	0.26015583	-0.1242426	0.78879535	-0.25295595	-0.023910558	0.82535718	0.27779922
183	0.728	0.21258557	0.015833299	0.0052656036	-0.51315082	0.073920429	0.075638394	0.066006759	0.045692946	-0.041759207	-0.55137592	0.22411489	0.11248257	0.080505141	0.069149267	0.054170716	-0.49756158	0.22278994	0.029280912	-0.0083168451	0.012135107	0.000791296	-0.58784561	0.27129319	0.053182074	0.11325242	0.45234378	-0.10853619	-0.15490064	0.42597036	0.18815441	0.11062722	0.4594732	0.015764015	-0.13897247	0.40077822	0.062284656	-0.078184117	0.82500128	-0.16818486	-0.1423231	0.82435348	0.20091418	-0.018577718	0.91597141	-0.099311857	-0.03608628	0.90971939	0.14111566	-0.19594808	0.96293114	0.0040639388	-0.038998029	1.3595895	-0.16123638	-0.066296329	1.3799897	0.17079502	-0.1209929	1.4186186	0.00041518129	-0.20424162	1.0370086	-0.21720978	-0.19642326	1.0366897	0.26035613	-0.1148311	0.78949101	-0.25274562	-0.019803389	0.82517993	0.27808782
184	0.732	0.21256081	0.015806056	0.0052377094	-0.5032517	0.078284117	0.077785348	0.066052341	0.04562815	-0.041830026	-0.53871868	0.22964427	0.1133899	0.080667839	0.069141833	0.0540966	-0.48487948	0.22749146	0.03031071	-0.0083745795	0.012067889	0.00093105042	-0.57433389	0.27756802	0.054219399	0.11610542	0.45189166	-0.10876466	-0.13910863	0.42674011	0.18912006	0.11279656	0.45911731	0.01546791	-0.12521342	0.40145048	0.062320799	-0.072209475	0.82608071	-0.16862874	-0.13588212	0.82476501	0.20048771	-0.012541329	0.91695011	-0.099684417	-0.030291184	0.91067718	0.14085519	-0.19025334	0.96411275	0.0034792162	-0.031475937	1.3603903	-0.16120399	-0.059379173	1.3808401	0.17073149	-0.11386492	1.4197471	0.00023000254	-0.1963695	1.0375025	-0.21774837	-0.19053089	1.0379466	0.26073691	-0.10538284	0.79026437	-0.25249163	-0.015737192	0.82504581	0.2783392
